{
  "accessors": [
    {
      "bufferView": 2,
      "componentType": 5126,
      "count": 341,
      "max": [
        94.29732513427734,
        99.53652954101563,
        96.68851470947266
      ],
      "min": [
        -91.6451187133789,
        -97.68087005615234,
        -766.6226196289063
      ],
      "type": "VEC3"
    },
    {
      "bufferView": 2,
      "byteOffset": 4092,
      "componentType": 5126,
      "count": 341,
      "max": [
        0.9999727010726929,
        0.9987750053405762,
        1.0
      ],
      "min": [
        -0.9999992847442627,
        -0.9978413581848145,
        -0.9830248355865479
      ],
      "type": "VEC3"
    },
    {
      "bufferView": 1,
      "componentType": 5126,
      "count": 341,
      "max": [
        0.8750001192092896,
        1.0000001192092896
      ],
      "min": [
        0.125,
        0.0
      ],
      "type": "VEC2"
    },
    {
      "bufferView": 0,
      "componentType": 5125,
      "count": 1728,
      "type": "SCALAR"
    },
    {
      "bufferView": 2,
      "byteOffset": 8184,
      "componentType": 5126,
      "count": 197,
      "max": [
        91.66667175292969,
        91.66667175292969,
        91.9753189086914
      ],
      "min": [
        -91.66667175292969,
        -91.66667175292969,
        -91.9753189086914
      ],
      "type": "VEC3"
    },
    {
      "bufferView": 2,
      "byteOffset": 10548,
      "componentType": 5126,
      "count": 197,
      "max": [
        1.0,
        1.0,
        1.0
      ],
      "min": [
        -1.0,
        -1.0,
        -1.0
      ],
      "type": "VEC3"
    },
    {
      "bufferView": 1,
      "byteOffset": 2728,
      "componentType": 5126,
      "count": 197,
      "max": [
        0.8750001192092896,
        1.0000001192092896
      ],
      "min": [
        0.125,
        0.0
      ],
      "type": "VEC2"
    },
    {
      "bufferView": 0,
      "byteOffset": 6912,
      "componentType": 5125,
      "count": 960,
      "type": "SCALAR"
    },
    {
      "bufferView": 2,
      "byteOffset": 12912,
      "componentType": 5126,
      "count": 985,
      "max": [
        91.06392669677734,
        91.06392669677734,
        106.21993255615234
      ],
      "min": [
        -91.06393432617188,
        -91.06391906738281,
        -599.6257934570313
      ],
      "type": "VEC3"
    },
    {
      "bufferView": 2,
      "byteOffset": 24732,
      "componentType": 5126,
      "count": 985,
      "max": [
        0.9999998807907104,
        0.9999999403953552,
        1.0
      ],
      "min": [
        -0.9999999403953552,
        -0.9999999403953552,
        -1.0
      ],
      "type": "VEC3"
    },
    {
      "bufferView": 1,
      "byteOffset": 4304,
      "componentType": 5126,
      "count": 985,
      "max": [
        0.8750001192092896,
        1.0000001192092896
      ],
      "min": [
        0.125,
        0.0
      ],
      "type": "VEC2"
    },
    {
      "bufferView": 0,
      "byteOffset": 10752,
      "componentType": 5125,
      "count": 5376,
      "type": "SCALAR"
    },
    {
      "bufferView": 2,
      "byteOffset": 36552,
      "componentType": 5126,
      "count": 1233,
      "max": [
        132.65652465820313,
        347.37872314453125,
        116.74211883544922
      ],
      "min": [
        -123.26160430908203,
        -139.0921173095703,
        -121.18524169921875
      ],
      "type": "VEC3"
    },
    {
      "bufferView": 2,
      "byteOffset": 51348,
      "componentType": 5126,
      "count": 1233,
      "max": [
        0.9996820092201233,
        1.0,
        0.9988399744033813
      ],
      "min": [
        -0.9985257983207703,
        -1.0,
        -0.9990294575691223
      ],
      "type": "VEC3"
    },
    {
      "bufferView": 1,
      "byteOffset": 12184,
      "componentType": 5126,
      "count": 1233,
      "max": [
        1.0000001192092896,
        1.0000001192092896
      ],
      "min": [
        0.0,
        0.01000000536441803
      ],
      "type": "VEC2"
    },
    {
      "bufferView": 0,
      "byteOffset": 32256,
      "componentType": 5125,
      "count": 6528,
      "type": "SCALAR"
    }
  ],
  "asset": {
    "extras": {
      "author": "onion_3d (https://sketchfab.com/comfy_onion)",
      "license": "CC-BY-4.0 (http://creativecommons.org/licenses/by/4.0/)",
      "source": "https://sketchfab.com/3d-models/toon-paint-brush-gameready-fba7de3a8cf948468ca2526cff5433a7",
      "title": "Toon Paint Brush - GameReady"
    },
    "generator": "Sketchfab-15.27.0",
    "version": "2.0"
  },
  "bufferViews": [
    {
      "buffer": 0,
      "byteLength": 58368,
      "name": "floatBufferViews",
      "target": 34963
    },
    {
      "buffer": 0,
      "byteLength": 22048,
      "byteOffset": 58368,
      "byteStride": 8,
      "name": "floatBufferViews",
      "target": 34962
    },
    {
      "buffer": 0,
      "byteLength": 66144,
      "byteOffset": 80416,
      "byteStride": 12,
      "name": "floatBufferViews",
      "target": 34962
    }
  ],
  "buffers": [
    {
      "byteLength": 146560,
      "uri": "scene.bin"
    }
  ],
  "materials": [
    {
      "doubleSided": true,
      "name": "Material",
      "pbrMetallicRoughness": {
        "baseColorFactor": [
          0.129886,
          0.0238139,
          0.00502503,
          1.0
        ],
        "metallicFactor": 0.0
      }
    },
    {
      "doubleSided": true,
      "name": "Material.001",
      "pbrMetallicRoughness": {
        "baseColorFactor": [
          0.0628462,
          0.0628462,
          0.0628462,
          1.0
        ],
        "metallicFactor": 0.0,
        "roughnessFactor": 0.9848909862163839
      }
    },
    {
      "doubleSided": true,
      "name": "Material.002",
      "pbrMetallicRoughness": {
        "baseColorFactor": [
          0.799103,
          0.0451859,
          0.376262,
          1.0
        ],
        "metallicFactor": 0.0
      }
    }
  ],
  "meshes": [
    {
      "name": "Cube_Material_0",
      "primitives": [
        {
          "attributes": {
            "NORMAL": 1,
            "POSITION": 0,
            "TEXCOORD_0": 2
          },
          "indices": 3,
          "material": 0,
          "mode": 4
        }
      ]
    },
    {
      "name": "Cube.001_Material.001_0",
      "primitives": [
        {
          "attributes": {
            "NORMAL": 5,
            "POSITION": 4,
            "TEXCOORD_0": 6
          },
          "indices": 7,
          "material": 1,
          "mode": 4
        }
      ]
    },
    {
      "name": "Cube.002_Material.001_0",
      "primitives": [
        {
          "attributes": {
            "NORMAL": 9,
            "POSITION": 8,
            "TEXCOORD_0": 10
          },
          "indices": 11,
          "material": 1,
          "mode": 4
        }
      ]
    },
    {
      "name": "Cylinder_Material.002_0",
      "primitives": [
        {
          "attributes": {
            "NORMAL": 13,
            "POSITION": 12,
            "TEXCOORD_0": 14
          },
          "indices": 15,
          "material": 2,
          "mode": 4
        }
      ]
    }
  ],
  "nodes": [
    {
      "children": [
        1
      ],
      "matrix": [
        0.4538024365901947,
        -3.705219896310829e-17,
        0.8911023139953613,
        0.0,
        0.8911023139953613,
        -6.004787954908656e-17,
        -0.4538024365901947,
        0.0,
        7.032318329266927e-17,
        1.0,
        5.767420868074929e-18,
        0.0,
        0.0,
        0.0,
        0.0,
        1.0
      ],
      "name": "Sketchfab_model"
    },
    {
      "children": [
        2
      ],
      "matrix": [
        0.009999999776482582,
        0.0,
        0.0,
        0.0,
        0.0,
        0.0,
        0.009999999776482582,
        0.0,
        0.0,
        -0.009999999776482582,
        0.0,
        0.0,
        0.0,
        0.0,
        0.0,
        1.0
      ],
      "name": "a77d2e7bd6114e9f9316527950864ffe.fbx"
    },
    {
      "children": [
        3,
        11
      ],
      "name": "RootNode"
    },
    {
      "children": [
        4,
        5,
        7,
        9
      ],
      "matrix": [
        0.9501114697944719,
        0.28509368247037814,
        -0.1265293166470978,
        0.0,
        -0.31191036493790975,
        0.8684251233572085,
        -0.38542134107627113,
        0.0,
        4.79874591868823e-08,
        0.40565909054920357,
        0.9140244538603937,
        0.0,
        0.0,
        0.0,
        0.0,
        1.0
      ],
      "name": "Cube"
    },
    {
      "mesh": 0,
      "name": "Cube_Material_0"
    },
    {
      "children": [
        6
      ],
      "matrix": [
        1.0952130556106552,
        -5.722045595679681e-08,
        -1.2030703849807981e-08,
        0.0,
        5.722046244450624e-08,
        1.0952131748199445,
        2.3624068257177552e-08,
        0.0,
        3.297913177497979e-09,
        -6.475940939934716e-09,
        0.30022498965263356,
        0.0,
        -2.6664172310120193e-06,
        -2.9104753593856003e-06,
        90.00189971923828,
        1.0
      ],
      "name": "Cube.001"
    },
    {
      "mesh": 1,
      "name": "Cube.001_Material.001_0"
    },
    {
      "children": [
        8
      ],
      "matrix": [
        1.0952130556106552,
        -5.722045595679681e-08,
        -1.2030703849807981e-08,
        0.0,
        5.722046244450624e-08,
        1.0952131748199445,
        2.3624068257177552e-08,
        0.0,
        3.297913177497979e-09,
        -6.475940939934716e-09,
        0.30022498965263356,
        0.0,
        -7.314597496588249e-06,
        -1.0863538591365796e-05,
        244.78262329101563,
        1.0
      ],
      "name": "Cube.002"
    },
    {
      "mesh": 2,
      "name": "Cube.002_Material.001_0"
    },
    {
      "children": [
        10
      ],
      "matrix": [
        -0.7056044289436683,
        0.7086059482216317,
        4.550252080681716e-08,
        0.0,
        6.308093125628744e-08,
        -1.4004064574635322e-09,
        0.999999999999998,
        0.0,
        0.7086059059854244,
        0.7056043868863685,
        -4.371138745769289e-08,
        0.0,
        -1.0356267011957243e-05,
        -1.1743473805836402e-05,
        349.603515625,
        1.0
      ],
      "name": "Cylinder"
    },
    {
      "mesh": 3,
      "name": "Cylinder_Material.002_0"
    },
    {
      "children": [
        12
      ],
      "matrix": [
        -88.41130976080993,
        -39.51602804225855,
        24.938400793586553,
        0.0,
        -38.088043184975795,
        91.86102940911184,
        10.528711607631475,
        0.0,
        -27.069196188087048,
        -0.18997700166998877,
        -96.26640639699214,
        0.0,
        1955.0242919921875,
        847.9915771484375,
        -545.53271484375,
        1.0
      ],
      "name": "Camera"
    },
    {
      "name": "Object_12"
    }
  ],
  "scene": 0,
  "scenes": [
    {
      "name": "Sketchfab_Scene",
      "nodes": [
        0
      ]
    }
  ]
}
